<svg width="41" height="22" viewBox="0 0 41 22" fill="none" xmlns="http://www.w3.org/2000/svg">
<path d="M1.25549 9.75546H39.0409C39.7336 9.75546 40.2932 10.3151 40.2932 11.0078C40.2932 11.7005 39.7336 12.2601 39.0409 12.2601H4.28067L11.8808 19.8603C12.37 20.3495 12.37 21.1439 11.8808 21.6331C11.3916 22.1223 10.5971 22.1223 10.1079 21.6331L0.367107 11.8923C0.007061 11.5322 -0.0986099 10.9961 0.0970688 10.5264C0.292747 10.0607 0.750637 9.75546 1.25549 9.75546Z" fill="#65676B"/>
<path d="M11.0082 0.00282669C11.3291 0.00282669 11.65 0.124147 11.8926 0.370702C12.3818 0.859897 12.3818 1.65435 11.8926 2.14354L2.14004 11.8961C1.65084 12.3853 0.856395 12.3853 0.3672 11.8961C-0.121995 11.4069 -0.121995 10.6125 0.3672 10.1233L10.1198 0.370702C10.3663 0.124147 10.6872 0.00282669 11.0082 0.00282669Z" fill="#65676B"/>
</svg>
