<svg width="41" height="22" viewBox="0 0 41 22" fill="none" xmlns="http://www.w3.org/2000/svg">
<path d="M39.0377 12.2474L1.25234 12.2474C0.559636 12.2474 -2.04305e-06 11.6878 -1.92194e-06 10.9951C-1.80082e-06 10.3024 0.559637 9.74273 1.25234 9.74273L36.0125 9.74274L28.4124 2.14261C27.9232 1.65342 27.9232 0.858964 28.4124 0.36977C28.9016 -0.119425 29.6961 -0.119425 30.1853 0.36977L39.9261 10.1106C40.2862 10.4707 40.3918 11.0068 40.1961 11.4764C40.0005 11.9422 39.5426 12.2474 39.0377 12.2474Z" fill="#65676B"/>
<path d="M29.2851 22C28.9641 22 28.6432 21.8787 28.4006 21.6322C27.9114 21.143 27.9114 20.3485 28.4006 19.8593L38.1532 10.1067C38.6424 9.61755 39.4368 9.61755 39.926 10.1067C40.4152 10.5959 40.4152 11.3904 39.926 11.8796L30.1734 21.6322C29.9269 21.8787 29.606 22 29.2851 22Z" fill="#65676B"/>
</svg>
