<svg width="103" height="193" viewBox="0 0 103 193" fill="none" xmlns="http://www.w3.org/2000/svg">
<g opacity="0.03">
<path d="M6.5 0C-46.7148 0 -90 43.2852 -90 96.5C-90 149.715 -46.7148 193 6.5 193C59.7148 193 103 149.715 103 96.5C103 43.2852 59.6892 0 6.5 0ZM6.5 182.737C-41.0444 182.737 -79.7368 144.044 -79.7368 96.5C-79.7368 48.9556 -41.0444 10.2632 6.5 10.2632C54.0444 10.2632 92.7368 48.9556 92.7368 96.5C92.7368 144.044 54.0444 182.737 6.5 182.737Z" fill="#65676B"/>
<path d="M6.50002 43.7983C-22.5449 43.7983 -46.2017 67.4294 -46.2017 96.5C-46.2017 125.545 -22.5706 149.202 6.50002 149.202C35.5449 149.202 59.2017 125.571 59.2017 96.5C59.176 67.4294 35.5449 43.7983 6.50002 43.7983ZM6.50002 138.913C-16.9001 138.913 -35.9384 119.875 -35.9384 96.4744C-35.9384 73.0742 -16.9001 54.0359 6.50002 54.0359C29.9002 54.0359 48.9385 73.0742 48.9385 96.4744C48.9128 119.9 29.9002 138.913 6.50002 138.913Z" fill="#65676B"/>
<path d="M6.49986 22.7329C-34.1682 22.7329 -67.2671 55.8318 -67.2671 96.4999C-67.2671 137.168 -34.1682 170.267 6.49986 170.267C47.1679 170.267 80.2668 137.168 80.2668 96.4999C80.2668 55.8062 47.1679 22.7329 6.49986 22.7329ZM6.49986 160.004C-28.5234 160.004 -57.0039 131.523 -57.0039 96.4999C-57.0039 61.4766 -28.5234 32.9961 6.49986 32.9961C41.5231 32.9961 70.0036 61.4766 70.0036 96.4999C70.0036 131.497 41.4975 160.004 6.49986 160.004Z" fill="#65676B"/>
<path d="M6.49991 76.9741C-4.27648 76.9741 -13.0259 85.7235 -13.0259 96.4999C-13.0259 107.276 -4.27648 116.026 6.49991 116.026C17.2763 116.026 26.0257 107.276 26.0257 96.4999C26 85.7235 17.2763 76.9741 6.49991 76.9741Z" fill="#65676B"/>
</g>
</svg>
